<svg version="1.2" xmlns="http://www.w3.org/2000/svg" viewBox="4.547473508864638e-13 0 1073.746783283912 1079.9999980636924" width="1074" height="1080">
	<style>
		.s0 { fill: #000000 } 
	</style>
	<g id="Layer 1">
		<path id="&lt;Compound Path&gt;" fill-rule="evenodd" class="s0" d="m663 505.26l-14.84-33.59c76.53-26.55 76.53-87.46 80.43-146.03l173.37-160.09-229.59 136.67c-2.35 59.34 4.68 147.59-105.42 110.1-5.47-84.33-7.81-352.97-32.8-412.32-26.55 105.42-27.34 291.28-32.02 408.42-25.77 20.3-60.91 18.74-85.12-3.91-25.77-25.77-18.74-61.69-19.53-101.51l-235.05-140.57 178.05 160.87c3.91 102.3 11.71 106.21 79.65 150.72l-12.49 32.01c-72.62 2.35-360 10.16-407.64 32.8 47.64 21.87 335.02 29.68 408.42 32.02l10.93 32.01c-67.16 46.08-74.96 46.08-79.65 150.72-22.65 13.28-135.1 117.92-166.34 147.59l-12.5 14.84c28.9-10.15 89.03-51.54 118.7-69.5 39.05-24.21 79.65-49.98 118.7-71.85 0.78-38.26-7.03-74.18 17.18-99.18 22.65-24.2 57-28.89 86.68-7.02 4.69 114.01 3.12 310.8 32.02 411.54 25.77-52.33 26.55-335.01 33.58-414.67 34.36-13.27 60.13-15.62 85.12 8.59 24.21 24.21 17.18 65.6 17.18 103.86 20.3 5.47 90.59 51.54 114.79 66.38l118.7 68.72c-6.25-14.83-7.81-14.83-22.65-25.77l-67.15-58.57c-8.6-8.59-10.94-13.27-19.53-21.87-9.37-8.59-62.47-48.42-65.59-64.03 0-33.58-3.13-64.82-17.96-89.03-13.28-21.08-35.93-39.05-61.7-48.42l13.28-34.36c80.43-6.24 358.44-7.8 411.54-32.01-53.88-24.99-331.11-26.55-410.77-33.58zm-127.68 103.86c-39.51 0-71.45-31.94-71.45-71.45 0-39.52 31.94-71.46 71.45-71.46 39.51 0 71.45 31.94 71.45 71.46 0 39.51-31.94 71.45-71.45 71.45zm-0.39-39.05c-18.14 0-32.8-14.48-32.8-32.4 0-17.93 14.66-32.41 32.8-32.41 18.14 0 32.8 14.48 32.8 32.41 0 17.92-14.66 32.4-32.8 32.4z"/>
	</g>
</svg>